<svg id="Layer_1" xmlns="http://www.w3.org/2000/svg" viewBox="0 0 512 512"><style>.st2{fill:#fff}.st5{fill:#1d1d1b}</style><path id="XMLID_63_" fill="#216f4f" d="M0 204.6l32-12.9-2.5 52.9-6 .1z"/><path id="XMLID_62_" fill="#4f2557" d="M17.8 382.3l4.9-44.1-13.2 4.5-8.1 25.1z"/><path id="XMLID_61_" class="st2" d="M501.2 356.3L16.8 389.2l14.5-216.7 440.7 4.1z"/><path id="XMLID_60_" d="M171.8 178.5c1.1 0 2-.1 2.8-.4l-5.4-.1v.1c.9.3 1.7.4 2.6.4z" fill="none"/><path id="XMLID_59_" d="M472 176.6l-288.1-2.7c-.3 1.7-.7 3.1-1.2 4.3l285.7 2.7 27.9 171.5-475 32.2 14-207.8L165 178c.4-.9 1.1-1.4 2.1-1.4 1.2 0 1.7.8 2.1 1.5l5.4.1c.8-.3 1.5-.7 2-1.2.3-.8.6-1.8.9-3l-146.2-1.4-14.5 216.6 484.5-33L472 176.6z" fill="#010101"/><path class="st5" d="M49.7 158.1c0-5.2 2.2-11.8 3.3-13.5.6-1 2.1-1.5 3.5-1.5.9 0 1.4.4 1.4 1.2 0 .4-.4 1.3-1 3-2.1 5.8-3.6 9.6-3.6 12 0 1.1.4 1.6 1.3 1.6 1.1 0 3.7-2.2 6.3-6.6.8-1.4 1.1-2.4 1.6-2.4.4 0 1.3.5 1.3 1.4 0 .4-.8 1.6-2.2 4.1-2.6 4.4-4.8 6.7-7.6 6.7-2.5.1-4.3-2.2-4.3-6zm4.6-19.1c0-2.2 3.1-3.1 4.4-3.1s1.9.6 1.9 1.9c0 1.7-1.9 3.4-3.8 3.4-1.3 0-2.5-.7-2.5-2.2z"/><path class="st5" d="M63.1 164.2c-1.6 0-3.1-1-3.1-3.2 0-1.1 1-8.2 4.2-15.7.7-1.8 1.3-2.5 2.8-2.5 1 0 2.2.7 2.2 1.6 0 .6-3.1 5.2-4.8 14.6 6.1-11.7 9.7-17.4 11.7-17.4 1.4 0 3.2 1.2 3.2 2.6 0 1-1.2 1.4-1.5 1.8-.2.3-.9 1.9-1.8 4.8-1.3 4.5-1.7 7.7-1.7 8.7 0 1 .3 1.6.7 1.6 1.3 0 2.7-2.6 5.4-7.2.4-.7.4-1.4 1.3-1.4.4 0 1.6.9 1.6 1.4 0 .3-1.9 5.4-5.5 9-1 1-2 1.5-3.1 1.5-2.5 0-4-2-4-5.8 0-1.7.4-4.3 1.1-7.9-5.2 8.8-6.4 13.5-8.7 13.5z"/><path class="st5" d="M98.6 138.5c1.5 0 2.1.3 2.1 1 0 .3-.4.7-1.3 1.6-5.6 8.7-9.6 15.9-12 21-.7 1.6-1.4 2.3-4 2.3-2.7 0-2.8-.8-2.8-5.2 0-10.4 2.5-16.7 4.3-16.7 1.2 0 3.1 1.3 3.1 2.2 0 .5-.4 1.1-1.2 1.9-1.2 2.9-2 7.6-2.2 13.9 7-14.8 10.8-22 14-22zM107.5 144.6c2 0 3.6 2.1 3.7 5.9 3.5-1.1 4.3-4.6 5.6-4.6.7 0 1.2.4 1.2 1 0 .8-.4 1.6-1.3 2.5-1.8 2.7-3.8 4.2-6 4.6-2.2 7.7-5.7 11.7-10 11.7-3.2 0-5.5-2.2-5.5-6.1 0-2.8 1.4-7.8 4.4-12.5 1.5-2.4 3-3.6 4.5-3.6 1 0 1.8.4 2.2 1.3.3-.1.7-.2 1.2-.2zm-6.5 17.6c2.5 0 6.4-7 6.4-12.5 0-1.3-.5-2.1-1.3-2.1-2.2 0-6.7 6.8-6.7 12.3.1 1.6.6 2.3 1.6 2.3z"/><path class="st5" d="M113.4 158.1c0-5.2 2.2-11.8 3.3-13.5.6-1 2.1-1.5 3.5-1.5.9 0 1.4.4 1.4 1.2 0 .4-.4 1.3-1 3-2.1 5.8-3.6 9.6-3.6 12 0 1.1.4 1.6 1.3 1.6 1.1 0 3.7-2.2 6.3-6.6.8-1.4 1.1-2.4 1.6-2.4.4 0 1.3.5 1.3 1.4 0 .4-.8 1.6-2.2 4.1-2.6 4.4-4.8 6.7-7.6 6.7-2.6.1-4.3-2.2-4.3-6zm4.5-19.1c0-2.2 3.1-3.1 4.4-3.1 1.3 0 1.9.6 1.9 1.9 0 1.7-1.9 3.4-3.8 3.4-1.3 0-2.5-.7-2.5-2.2z"/><path class="st5" d="M136.2 143.6c-.7 0-1.4.4-2.2 1.4-4 5.1-6.1 12.1-6.1 15.2 0 2.2.7 3.4 2.4 3.4 2.6 0 5.4-2 8.6-6.1 2.3-2.9 2.9-5.1 3.4-5.1.2 0 1.3.4 1.3 1.1 0 .6-.7 2.5-2.4 5-3.1 4.6-6.9 7-10.6 7-4 0-6.7-2.5-6.7-6.6 0-5.4 3.4-13.8 7.4-17.6 1-1 2.1-1.3 3.6-1.3 1.1 0 2 .4 3 1 1.6.3 2.6 1.7 2.6 3.9 0 3.1-2 7.9-4 7.9-1.1 0-2.1-1-2.1-1.9 0-2 1.3-4.4 1.9-7.3h-.1z"/><path class="st5" d="M141 158.1c0-5.2 2.2-11.8 3.3-13.5.6-1 2.1-1.5 3.5-1.5.9 0 1.4.4 1.4 1.2 0 .4-.4 1.3-1 3-2.1 5.8-3.6 9.6-3.6 12 0 1.1.4 1.6 1.3 1.6 1.1 0 3.7-2.2 6.3-6.6.8-1.4 1.1-2.4 1.6-2.4.4 0 1.3.5 1.3 1.4 0 .4-.8 1.6-2.2 4.1-2.6 4.4-4.8 6.7-7.6 6.7-2.6.1-4.3-2.2-4.3-6zm4.6-19.1c0-2.2 3.1-3.1 4.4-3.1 1.3 0 1.9.6 1.9 1.9 0 1.7-1.9 3.4-3.8 3.4-1.3 0-2.5-.7-2.5-2.2z"/><path class="st5" d="M154.4 164.2c-1.6 0-3.1-1-3.1-3.2 0-1.1 1-8.2 4.2-15.7.7-1.8 1.3-2.5 2.8-2.5 1 0 2.2.7 2.2 1.6 0 .6-3.1 5.2-4.8 14.6 6.1-11.7 9.7-17.4 11.7-17.4 1.4 0 3.2 1.2 3.2 2.6 0 1-1.2 1.4-1.5 1.8-.2.3-.9 1.9-1.8 4.8-1.3 4.5-1.7 7.7-1.7 8.7 0 1 .3 1.6.7 1.6 1.3 0 2.7-2.6 5.4-7.2.4-.7.4-1.4 1.3-1.4.4 0 1.6.9 1.6 1.4 0 .3-1.9 5.4-5.5 9-1 1-2 1.5-3.1 1.5-2.5 0-4-2-4-5.8 0-1.7.4-4.3 1.1-7.9-5.2 8.8-6.4 13.5-8.7 13.5z"/><path class="st5" d="M173.7 165c-2.3 0-4.1-1.7-4.1-5.1 0-3.7 1.9-9.6 5.8-14.5 1.7-2.2 2.8-3.2 4.6-3.2 1.3 0 2.7.8 4.5 2.3.9-.2 1.5-.4 1.9-.4 1.4 0 2.6.9 2.6 2.2 0 .9-2.6 4.6-5.3 15.9-1.3 5.8-1.7 10-2.9 12.6-1.3 2.8-4.7 4.6-9.1 4.6-4 0-6.4-1.5-6.4-3.2 0-.9.5-1.4 1.1-1.4.6 0 .8.4 1.2 1.3 1.1.4 2.2.7 3.5.7 2.6 0 4.6-.7 5.9-2.2 1.1-2.8 2.2-8.1 3.8-15.8-2.9 4-4.9 6.2-7.1 6.2zm0-2.2c1 0 1.9-1 3.4-3 4.3-5.9 6.1-10.7 6.1-12.2 0-1-.6-1.7-1.6-1.7-1.3 0-3.4 2.2-6 6.6-2.4 4.1-3.2 7.4-3.2 8.6-.1 1.1.3 1.7 1.3 1.7zM212 165.5c-1.7 0-4.3-1.9-4.3-5.2 0-2.5.9-7.3 3.2-12.7 1-2.5 1.7-3.6 3-3.6 1.1 0 2.5 1 2.8 2.4-.4.7-.9 1.3-1.3 1.8-2.8 6.5-3.5 11.1-3.5 12.6 0 .7.1 1 .4 1 1.6 0 4-5.5 8.4-16.2.3-.3.5-.4.8-.4 1.7 0 3.4 1.1 3.4 1.9 0 .4-3 4.4-3 11.4 0 .9.1 1.3.5 1.3 1.4 0 4.9-6 7.3-17.1-.1-.9-.8-1.4-.8-2 0-.5.6-.9 1.4-.9 1.6 0 2.9 1.4 2.9 2.5 0 .9-1.1 8-4.5 15-2.2 4.4-4 6.6-6.4 6.6-.7 0-1.3-.3-2-.7-1.5-.2-2.2-1.8-2.2-4.7-1.9 4.7-4.3 7-6.1 7zM233.6 158.1c0-5.2 2.2-11.8 3.3-13.5.6-1 2.1-1.5 3.5-1.5.9 0 1.4.4 1.4 1.2 0 .4-.4 1.3-1 3-2.1 5.8-3.6 9.6-3.6 12 0 1.1.4 1.6 1.3 1.6 1.1 0 3.7-2.2 6.3-6.6.8-1.4 1.1-2.4 1.6-2.4.4 0 1.3.5 1.3 1.4 0 .4-.8 1.6-2.2 4.1-2.6 4.4-4.8 6.7-7.6 6.7-2.6.1-4.3-2.2-4.3-6zm4.5-19.1c0-2.2 3.1-3.1 4.4-3.1 1.3 0 1.9.6 1.9 1.9 0 1.7-1.9 3.4-3.8 3.4-1.3 0-2.5-.7-2.5-2.2z"/><path class="st5" d="M244.4 135.6c-2.2 0-3.3-.7-3.3-1.9 0-1.4 3.5-1.7 10.8-2.2 1.3-4.1 1.9-5.9 3.8-5.9 1.3 0 2.2.7 2.2 1.4 0 .3-.9 1.6-1.6 4.3 2.8-.2 5.1-.3 6.7-.3 4.3 0 6.2.5 6.2 2.2 0 .7-.7.8-2.4.8-2.9 0-6.8.5-11.7.8-4.9 12.9-6.4 21.4-6.4 24.3 0 1.4.5 2.2 1.3 2.2 1.2 0 2.8-1.6 4.6-4.6 2-3.4 2.4-5.9 3.1-5.9.9 0 1.8.7 1.8 1.4 0 .5-1.3 4.2-4.7 8.8-1.6 2.2-3.6 3.3-5.7 3.3-2.2 0-4-2-4-5.9 0-4 1.6-11.7 5.4-23-3.3.1-5.3.2-6.1.2z"/><path class="st5" d="M256.1 165.5c-1.6 0-2.2-.6-2.2-2.1 0-2.4 2.8-12.4 9.9-29.5 3.2-7.7 4.3-11.1 7.1-11.1.7 0 1.3.6 1.3 1.1 0 1-6.6 12.6-14.5 36.9 7.8-11.4 10.3-17.8 14-17.8 1 0 1.7.7 1.7 1.9 0 1-.3 1.6-.7 2.4-3.1 6.7-4.9 11-4.9 13 0 .7.2 1 .6 1 1.2 0 2.9-2.2 5.5-6.3.7-1 1-1.8 1.6-1.8.2 0 1.3 1 1.3 1.6 0 .4-1.3 3.7-4.3 7-1.6 1.6-3.1 2.5-4.8 2.5-2.2 0-3.4-1.3-3.4-3.8 0-2.1.7-4.8 1.7-8.3-5.2 8.7-6.9 13.3-9.9 13.3z"/><path id="XMLID_39_" fill="#22b67f" d="M0 204.6l512-46.3-44.6 142.9-457.9-19z"/><g><path class="st2" d="M44.7 216.7h4.8v42.9h-4.8v-42.9zM61.3 227.9H66v5.5c1.1-1.7 2.4-3.2 4.2-4.4 1.7-1.2 3.9-1.8 6.7-1.8 1.9 0 3.6.3 5.1.9 1.5.6 2.8 1.5 3.8 2.6s1.8 2.5 2.4 4c.6 1.6.8 3.3.8 5.1v19.7h-4.7V241c0-2.9-.8-5.3-2.3-7-1.5-1.7-3.7-2.6-6.5-2.6-1.3 0-2.6.2-3.8.7-1.2.5-2.2 1.1-3 2-.9.9-1.5 1.9-2 3.1-.5 1.2-.7 2.6-.7 4v18.1h-4.7v-31.4zM95.9 227.9h5.2l10.7 26.3 10.7-26.3h5.1l-13.8 31.9h-4.2l-13.7-31.9zM149.4 260.3c-2.4 0-4.6-.4-6.6-1.3s-3.7-2.1-5.2-3.6-2.6-3.2-3.4-5.2c-.8-2-1.2-4.1-1.2-6.3v-.1c0-2.2.4-4.4 1.2-6.4.8-2 2-3.8 3.4-5.3 1.5-1.5 3.2-2.7 5.2-3.6 2-.9 4.2-1.3 6.6-1.3 2.4 0 4.6.4 6.6 1.3s3.8 2.1 5.2 3.6c1.5 1.5 2.6 3.2 3.4 5.2.8 2 1.2 4.1 1.2 6.3v.1c0 2.2-.4 4.4-1.3 6.4-.8 2-2 3.8-3.5 5.3s-3.2 2.7-5.3 3.6c-1.7.9-4 1.3-6.3 1.3zm.1-4.2c1.7 0 3.3-.3 4.7-1 1.4-.7 2.7-1.5 3.7-2.6s1.8-2.4 2.4-3.9c.6-1.5.9-3 .9-4.7v-.1c0-1.7-.3-3.3-.9-4.8-.6-1.5-1.4-2.8-2.5-3.9s-2.3-2-3.7-2.7c-1.4-.7-3-1-4.7-1-1.7 0-3.3.3-4.7 1-1.4.7-2.6 1.5-3.6 2.6s-1.8 2.4-2.4 3.9c-.6 1.5-.9 3.1-.9 4.7v.1c0 1.7.3 3.3.9 4.8.6 1.5 1.4 2.8 2.4 3.9s2.3 2 3.7 2.6c1.5.7 3 1.1 4.7 1.1zM174.6 215.8h5.4v5.2h-5.4v-5.2zm.3 12.1h4.7v31.7h-4.7v-31.7zM204.9 260.3c-2.3 0-4.5-.4-6.5-1.3s-3.7-2.1-5.1-3.6c-1.5-1.5-2.6-3.2-3.4-5.2-.8-2-1.2-4.1-1.2-6.3v-.1c0-2.2.4-4.4 1.2-6.4.8-2 1.9-3.8 3.4-5.3 1.4-1.5 3.2-2.7 5.1-3.6 2-.9 4.1-1.3 6.5-1.3 1.5 0 2.9.1 4.1.4 1.2.3 2.3.7 3.4 1.2 1 .5 2 1.1 2.8 1.8.9.7 1.7 1.4 2.4 2.2l-3.1 3.3c-1.3-1.3-2.6-2.4-4.1-3.4-1.5-.9-3.3-1.4-5.5-1.4-1.6 0-3.1.3-4.5.9-1.4.6-2.6 1.5-3.6 2.6s-1.8 2.4-2.4 3.9c-.6 1.5-.9 3.1-.9 4.8v.1c0 1.7.3 3.3.9 4.8.6 1.5 1.4 2.8 2.4 3.9s2.3 2 3.7 2.6c1.4.6 2.9.9 4.6.9 2 0 3.8-.4 5.4-1.3s3-2 4.3-3.4l3 2.8c-1.6 1.8-3.4 3.3-5.4 4.4-2.1 1.4-4.6 2-7.5 2zM228.4 245.7c.2 1.7.6 3.2 1.2 4.5.7 1.3 1.5 2.4 2.5 3.3 1 .9 2.2 1.6 3.4 2.1 1.3.5 2.6.7 4 .7 2.2 0 4.1-.4 5.7-1.2 1.6-.8 3-1.9 4.3-3.2l2.9 2.6c-1.6 1.8-3.4 3.2-5.4 4.3-2 1.1-4.6 1.6-7.6 1.6-2.2 0-4.2-.4-6.1-1.2-1.9-.8-3.6-1.9-5-3.4-1.4-1.4-2.6-3.2-3.4-5.2-.8-2-1.3-4.3-1.3-6.7 0-2.3.4-4.4 1.1-6.5.8-2 1.8-3.8 3.2-5.3 1.3-1.5 2.9-2.7 4.8-3.5 1.9-.9 3.9-1.3 6.1-1.3 2.3 0 4.4.4 6.2 1.3 1.8.9 3.4 2.1 4.7 3.6 1.3 1.5 2.2 3.3 2.9 5.3.7 2 1 4.2 1 6.6v.7c0 .3 0 .6-.1.9h-25.1zm20.4-3.9c-.1-1.4-.4-2.8-.9-4-.5-1.3-1.2-2.4-2-3.4s-1.9-1.7-3.1-2.3c-1.2-.6-2.6-.9-4.1-.9-1.3 0-2.6.3-3.8.8-1.2.5-2.2 1.3-3.1 2.2-.9 1-1.6 2.1-2.2 3.4-.6 1.3-1 2.7-1.1 4.2h20.3zM273.4 237.8l-14.3-21.1h11l9 13.9 9.1-13.9h10.7l-14.3 20.9 14.9 21.9h-11l-9.6-14.7-9.7 14.7h-10.7l14.9-21.7zM305.5 226.7h9.3v4.7c1.1-1.6 2.5-2.8 4.1-3.8 1.6-1 3.6-1.5 6.1-1.5 1.9 0 3.8.4 5.6 1.1 1.8.7 3.4 1.8 4.8 3.3 1.4 1.4 2.5 3.2 3.3 5.3s1.3 4.5 1.3 7.3v.1c0 2.7-.4 5.2-1.3 7.3s-1.9 3.9-3.3 5.3-3 2.5-4.7 3.3c-1.8.7-3.7 1.1-5.6 1.1-2.5 0-4.5-.5-6.2-1.5-1.6-1-3-2.1-4.1-3.4v14.1h-9.3v-42.7zm17.2 25.6c1.1 0 2.1-.2 3.1-.6 1-.4 1.8-1 2.5-1.8s1.3-1.7 1.7-2.8c.4-1.1.6-2.3.6-3.7v-.1c0-1.3-.2-2.6-.6-3.7-.4-1.1-1-2.1-1.7-2.9-.7-.8-1.6-1.4-2.5-1.8-1-.4-2-.6-3.1-.6s-2.1.2-3.1.6c-1 .4-1.8 1-2.5 1.8s-1.3 1.8-1.7 2.9c-.4 1.1-.6 2.4-.6 3.7v.1c0 1.3.2 2.6.6 3.7.4 1.1 1 2.1 1.7 2.9.7.8 1.6 1.4 2.5 1.8.9.3 2 .5 3.1.5zM346.9 226.7h9.3v6.6c.9-2.2 2.2-4 3.9-5.4 1.6-1.3 3.8-2 6.6-1.8v9.7h-.5c-3.1 0-5.5.9-7.3 2.8-1.8 1.9-2.7 4.8-2.7 8.8v12.1h-9.3v-32.8zM388 260.3c-2.4 0-4.7-.4-6.8-1.2-2.1-.8-3.9-2-5.4-3.5-1.5-1.5-2.7-3.3-3.6-5.4-.9-2.1-1.3-4.4-1.3-6.9v-.1c0-2.3.4-4.5 1.2-6.6.8-2.1 1.9-3.9 3.3-5.5s3.1-2.8 5.1-3.7c2-.9 4.2-1.3 6.6-1.3 2.7 0 5.1.5 7.1 1.5s3.7 2.3 5 4c1.3 1.7 2.3 3.6 2.9 5.7.6 2.1.9 4.4.9 6.7v1.2c0 .4-.1.8-.1 1.3h-22.8c.4 2.1 1.4 3.7 2.8 4.8 1.4 1.1 3.2 1.6 5.2 1.6 1.6 0 2.9-.3 4.2-.8 1.2-.5 2.5-1.4 3.8-2.6l5.3 4.7c-1.6 1.9-3.4 3.4-5.6 4.5-2.2 1.1-4.8 1.6-7.8 1.6zm6-19.7c-.3-2.1-1-3.8-2.2-5.1-1.2-1.3-2.8-1.9-4.7-1.9-2 0-3.5.6-4.7 1.9-1.2 1.3-2 3-2.4 5.1h14zM421.5 260.2c-2.3 0-4.7-.4-7.1-1.2-2.4-.8-4.7-2.1-6.9-3.8l4-6.1c1.8 1.3 3.6 2.3 5.4 2.9 1.8.7 3.4 1 5 1 1.3 0 2.3-.2 3-.7.6-.4.9-1 .9-1.8v-.1c0-.5-.2-.9-.6-1.3-.4-.4-.9-.7-1.5-.9-.6-.3-1.4-.5-2.2-.8-.8-.2-1.7-.5-2.6-.8-1.1-.3-2.3-.7-3.5-1.2-1.2-.5-2.2-1.1-3.2-1.8-.9-.8-1.7-1.7-2.3-2.8-.6-1.1-.9-2.4-.9-4v-.1c0-1.7.3-3.2.9-4.4s1.5-2.4 2.6-3.3c1.1-.9 2.3-1.6 3.8-2 1.4-.4 3-.7 4.7-.7 2.1 0 4.2.3 6.3 1 2.1.7 4.1 1.6 5.9 2.8l-3.6 6.4c-1.6-.9-3.2-1.7-4.8-2.2s-2.9-.8-4.1-.8c-1.1 0-2 .2-2.6.6-.6.4-.9 1-.9 1.6v.1c0 .5.2.8.6 1.2.4.3.9.7 1.5 1 .6.3 1.3.6 2.1.9.8.3 1.6.6 2.5.9 1.1.4 2.3.8 3.5 1.3 1.2.5 2.2 1.1 3.2 1.9.9.7 1.7 1.6 2.3 2.7.6 1.1.9 2.3.9 3.9v.1c0 1.8-.3 3.4-.9 4.7-.6 1.3-1.5 2.4-2.7 3.3-1.1.9-2.5 1.5-4 1.9-1.3.4-2.9.6-4.7.6zM452.2 260.2c-2.3 0-4.7-.4-7.1-1.2s-4.7-2.1-6.9-3.8l4-6.1c1.8 1.3 3.6 2.3 5.4 2.9 1.8.7 3.4 1 5 1 1.3 0 2.3-.2 3-.7.6-.4.9-1 .9-1.8v-.1c0-.5-.2-.9-.6-1.3-.4-.4-.9-.7-1.5-.9-.6-.3-1.4-.5-2.2-.8-.8-.2-1.7-.5-2.6-.8-1.1-.3-2.3-.7-3.5-1.2-1.2-.5-2.2-1.1-3.2-1.8-.9-.8-1.7-1.7-2.3-2.8-.6-1.1-.9-2.4-.9-4v-.1c0-1.7.3-3.2.9-4.4.6-1.3 1.5-2.4 2.6-3.3 1.1-.9 2.3-1.6 3.8-2 1.4-.4 3-.7 4.7-.7 2.1 0 4.2.3 6.3 1 2.1.7 4.1 1.6 5.9 2.8l-3.6 6.4c-1.6-.9-3.2-1.7-4.8-2.2-1.6-.6-2.9-.8-4.1-.8-1.1 0-2 .2-2.6.6-.6.4-.9 1-.9 1.6v.1c0 .5.2.8.6 1.2.4.3.9.7 1.5 1 .6.3 1.3.6 2.1.9.8.3 1.6.6 2.5.9 1.1.4 2.3.8 3.5 1.3 1.2.5 2.2 1.1 3.2 1.9.9.7 1.7 1.6 2.3 2.7.6 1.1.9 2.3.9 3.9v.1c0 1.8-.3 3.4-.9 4.7-.6 1.3-1.5 2.4-2.7 3.3-1.1.9-2.5 1.5-4 1.9-1.3.4-2.9.6-4.7.6z"/></g><g><path class="st5" d="M207 344.8c-2.3 0-4.5-.4-6.5-1.2-2-.8-3.7-1.9-5.2-3.4-1.5-1.4-2.6-3.1-3.4-5-.8-1.9-1.2-4-1.2-6.2v-.1c0-2.2.4-4.3 1.2-6.2.8-1.9 2-3.6 3.4-5.1 1.5-1.5 3.2-2.6 5.3-3.4 2-.8 4.3-1.3 6.8-1.3 1.5 0 2.9.1 4.1.4 1.2.2 2.4.6 3.4 1s1.9.9 2.8 1.5c.9.6 1.6 1.2 2.4 1.9l-4.5 5c-1.3-1.1-2.5-1.9-3.8-2.6-1.3-.6-2.8-.9-4.4-.9-1.3 0-2.6.2-3.7.7-1.1.5-2.1 1.2-2.9 2.1-.8.9-1.5 1.9-1.9 3.1-.5 1.2-.7 2.4-.7 3.7v.1c0 1.3.2 2.6.7 3.7.5 1.2 1.1 2.2 1.9 3.1.8.9 1.8 1.6 2.9 2.1 1.1.5 2.4.8 3.8.8 1.8 0 3.4-.3 4.6-1 1.3-.6 2.5-1.5 3.8-2.6l4.5 4.4c-.8.9-1.7 1.6-2.6 2.3-.9.7-1.9 1.3-2.9 1.7-1.1.5-2.2.9-3.5 1.1-1.5.2-2.9.3-4.4.3zM241 344.8c-2.5 0-4.7-.4-6.8-1.3-2.1-.8-3.9-2-5.4-3.4-1.5-1.4-2.7-3.1-3.5-5-.8-1.9-1.3-4-1.3-6.2v-.1c0-2.2.4-4.3 1.3-6.2.9-1.9 2-3.6 3.5-5.1 1.5-1.5 3.3-2.6 5.4-3.4 2.1-.8 4.4-1.3 6.8-1.3 2.5 0 4.7.4 6.8 1.3 2.1.8 3.9 2 5.4 3.4 1.5 1.4 2.7 3.1 3.5 5 .8 1.9 1.3 4 1.3 6.2v.1c0 2.2-.4 4.3-1.3 6.2-.9 1.9-2 3.6-3.5 5.1-1.5 1.5-3.3 2.6-5.4 3.4-2 .9-4.3 1.3-6.8 1.3zm.1-6.2c1.4 0 2.7-.2 3.9-.7 1.2-.5 2.2-1.2 3-2.1.8-.9 1.5-1.9 2-3.1.5-1.2.7-2.4.7-3.7v-.1c0-1.3-.2-2.6-.7-3.7-.5-1.2-1.1-2.2-2-3.1-.9-.9-1.9-1.6-3.1-2.1-1.2-.5-2.5-.8-3.9-.8s-2.7.2-3.9.7c-1.2.5-2.2 1.2-3 2.1-.8.9-1.5 1.9-2 3.1-.5 1.2-.7 2.4-.7 3.7v.1c0 1.3.2 2.6.7 3.7.5 1.2 1.1 2.2 2 3.1.9.9 1.9 1.6 3.1 2.1 1.2.5 2.5.8 3.9.8zM264.1 313.5h7.6l8.4 13 8.4-13h7.6v30.8h-6.9v-20.1l-9 13.1h-.2l-8.9-13v20h-6.9v-30.8zM303.6 313.5h7.6l8.4 13 8.4-13h7.6v30.8h-6.9v-20.1l-9 13.1h-.2l-8.9-13v20h-7v-30.8zM343.1 313.5h24.1v6H350v6.2h15.1v6H350v6.5h17.4v6h-24.3v-30.7zM373.5 313.5h14.6c4.1 0 7.2 1 9.3 3.1 1.8 1.8 2.7 4.1 2.7 7v.1c0 2.5-.6 4.5-1.9 6.1-1.3 1.6-2.9 2.7-5 3.5l7.8 11h-8.2l-6.9-9.8h-5.5v9.8h-7v-30.8zm14.1 15c1.7 0 3.1-.4 4-1.2.9-.8 1.4-1.8 1.4-3.2v-.1c0-1.5-.5-2.6-1.5-3.3s-2.3-1.1-4.1-1.1h-7v8.8h7.2zM421.3 344.8c-2.3 0-4.5-.4-6.5-1.2-2-.8-3.7-1.9-5.2-3.4-1.5-1.4-2.6-3.1-3.4-5-.8-1.9-1.2-4-1.2-6.2v-.1c0-2.2.4-4.3 1.2-6.2.8-1.9 2-3.6 3.4-5.1 1.5-1.5 3.2-2.6 5.3-3.4 2-.8 4.3-1.3 6.8-1.3 1.5 0 2.9.1 4.1.4 1.2.2 2.4.6 3.4 1s1.9.9 2.8 1.5c.9.6 1.6 1.2 2.4 1.9l-4.5 5c-1.2-1.1-2.5-1.9-3.8-2.6-1.3-.6-2.8-.9-4.4-.9-1.3 0-2.6.2-3.7.7-1.1.5-2.1 1.2-2.9 2.1-.8.9-1.5 1.9-1.9 3.1-.5 1.2-.7 2.4-.7 3.7v.1c0 1.3.2 2.6.7 3.7.5 1.2 1.1 2.2 1.9 3.1.8.9 1.8 1.6 2.9 2.1 1.1.5 2.4.8 3.8.8 1.8 0 3.4-.3 4.6-1 1.3-.6 2.5-1.5 3.8-2.6l4.5 4.4c-.8.9-1.7 1.6-2.6 2.3-.9.7-1.9 1.3-2.9 1.7-1.1.5-2.2.9-3.5 1.1-1.5.2-2.9.3-4.4.3zM439.8 313.5h24.1v6h-17.1v6.2h15.1v6h-15.1v6.5h17.4v6h-24.3v-30.7z"/></g><path id="XMLID_10_" fill="#97598a" d="M14.5 261.7L175.1 296l8.7 56.6L1.4 367.8z"/><g><path class="st2" d="M41.4 314.6h9.4l5.6 17.8 6.2-17.9h7.6l6.2 17.9 5.6-17.8h9.2l-10.7 31h-7.7l-6.4-17.7-6.4 17.7h-7.7l-10.9-31zM110.5 346c-2.5 0-4.8-.4-6.9-1.3-2.1-.8-3.9-2-5.4-3.4-1.5-1.4-2.7-3.1-3.6-5.1-.9-1.9-1.3-4-1.3-6.2s.4-4.3 1.3-6.2c.9-1.9 2.1-3.6 3.6-5.1 1.6-1.5 3.4-2.6 5.5-3.4 2.1-.8 4.4-1.3 6.9-1.3s4.8.4 6.9 1.3c2.1.8 3.9 2 5.4 3.4 1.5 1.4 2.7 3.1 3.6 5.1.9 1.9 1.3 4 1.3 6.2v.1c0 2.2-.4 4.3-1.3 6.2-.9 2-2.1 3.6-3.6 5.1-1.6 1.5-3.4 2.6-5.5 3.4-2.2.8-4.5 1.2-6.9 1.2zm0-7.7c1.2 0 2.3-.2 3.3-.7 1-.4 1.9-1 2.6-1.8.7-.7 1.3-1.6 1.7-2.6.4-1 .6-2.1.6-3.2s-.2-2.2-.6-3.2c-.4-1-1-1.9-1.7-2.6-.7-.8-1.6-1.4-2.6-1.8-1-.5-2.1-.7-3.3-.7-1.2 0-2.3.2-3.3.7-1 .4-1.9 1-2.6 1.8-.7.7-1.3 1.6-1.6 2.6-.4 1-.6 2.1-.6 3.2v.1c0 1.1.2 2.2.6 3.2.4 1 1 1.9 1.7 2.6.7.8 1.6 1.4 2.6 1.8.9.4 2 .6 3.2.6zM149.1 346c-2.5 0-4.8-.4-6.9-1.3-2.1-.8-3.9-2-5.4-3.4-1.5-1.4-2.7-3.1-3.6-5.1-.9-1.9-1.3-4-1.3-6.2s.4-4.3 1.3-6.2c.9-1.9 2.1-3.6 3.6-5.1 1.6-1.5 3.4-2.6 5.5-3.4 2.1-.8 4.4-1.3 6.9-1.3s4.8.4 6.9 1.3c2.1.8 3.9 2 5.4 3.4 1.5 1.4 2.7 3.1 3.6 5.1.9 1.9 1.3 4 1.3 6.2v.1c0 2.2-.4 4.3-1.3 6.2-.9 2-2.1 3.6-3.6 5.1-1.6 1.5-3.4 2.6-5.5 3.4-2.1.8-4.4 1.2-6.9 1.2zm.1-7.7c1.2 0 2.3-.2 3.3-.7 1-.4 1.9-1 2.6-1.8.7-.7 1.3-1.6 1.7-2.6.4-1 .6-2.1.6-3.2s-.2-2.2-.6-3.2c-.4-1-1-1.9-1.7-2.6-.7-.8-1.6-1.4-2.6-1.8-1-.5-2.1-.7-3.3-.7-1.2 0-2.3.2-3.3.7-1 .4-1.9 1-2.6 1.8-.7.7-1.3 1.6-1.6 2.6-.4 1-.6 2.1-.6 3.2v.1c0 1.1.2 2.2.6 3.2.4 1 1 1.9 1.7 2.6.7.8 1.6 1.4 2.6 1.8.9.4 2 .6 3.2.6z"/></g><g><path class="st2" d="M44.4 289h-2.2v-1.3h2.2v-1.4c0-1.7.4-2.9 1.3-3.8.8-.8 1.9-1.1 3.2-1.1.5 0 .9 0 1.2.1.4.1.7.1 1 .3v1.3l-1.2-.3c-.3-.1-.7-.1-1.1-.1-2 0-3.1 1.2-3.1 3.7v1.4H51v1.3h-5.3v13.3h-1.5V289zM61 302.7c-1.1 0-2.2-.2-3.1-.6-.9-.4-1.8-1-2.5-1.6-.7-.7-1.2-1.5-1.6-2.4-.4-.9-.6-1.9-.6-2.9v-.2c0-1 .2-2 .6-2.9.4-.9.9-1.7 1.6-2.4.7-.7 1.5-1.3 2.5-1.7 1-.4 2-.6 3.1-.6s2.2.2 3.1.6c.9.4 1.8 1 2.5 1.6.7.7 1.2 1.5 1.6 2.4.4.9.6 1.9.6 2.9v.1c0 1-.2 2-.6 2.9-.4.9-.9 1.7-1.6 2.4-.7.7-1.5 1.3-2.5 1.7-1 .4-2 .7-3.1.7zm0-1.4c.9 0 1.7-.2 2.5-.5s1.4-.8 2-1.3c.5-.6 1-1.2 1.3-2 .3-.8.5-1.6.5-2.4v-.1c0-.9-.2-1.7-.5-2.5s-.8-1.4-1.3-2c-.6-.6-1.2-1-2-1.3-.8-.3-1.6-.5-2.5-.5-.9 0-1.7.2-2.5.5s-1.4.8-2 1.3c-.5.6-1 1.2-1.3 2-.3.8-.5 1.6-.5 2.4v.1c0 .9.2 1.7.5 2.5s.8 1.4 1.3 2c.6.6 1.2 1 2 1.3.8.3 1.6.5 2.5.5zM73.3 287.7h1.5v4.1c.3-.6.7-1.2 1.1-1.8.5-.6 1-1 1.5-1.4.6-.4 1.2-.7 1.9-.9.7-.2 1.4-.3 2.2-.3v1.5h-.1c-.9 0-1.7.2-2.5.5s-1.5.8-2.1 1.4c-.6.6-1.1 1.4-1.4 2.3-.4.9-.5 2-.5 3.1v6h-1.5v-14.5z"/></g></svg>